<?xml version="1.0" encoding="utf-8"?>
<!-- Generator: Adobe Illustrator 16.0.0, SVG Export Plug-In . SVG Version: 6.00 Build 0)  -->
<!DOCTYPE svg PUBLIC "-//W3C//DTD SVG 1.1//EN" "http://www.w3.org/Graphics/SVG/1.1/DTD/svg11.dtd">
<svg version="1.1" id="Layer_1" xmlns="http://www.w3.org/2000/svg" xmlns:xlink="http://www.w3.org/1999/xlink" x="0px" y="0px"
	 width="375px" height="270px" viewBox="0 0 375 270" enable-background="new 0 0 375 270" xml:space="preserve">
<g>
	<path fill-rule="evenodd" clip-rule="evenodd" fill="#546E7A" d="M108.442,228.045c-0.168-0.016-0.343-0.028-0.507,0.001
		c-1.901,0.314-2.433-0.461-2.418-2.377c0.099-13.55,0.107-27.1,0.083-40.652c-0.01-6.146-0.186-12.292-0.224-18.439
		c-0.014-2.278,0.231-4.558,0.224-6.836c-0.044-14.095-0.173-28.189-0.18-42.285c-0.004-9.462,0.204-18.926,0.219-28.391
		c0.037-22.938,0.252-45.882-0.096-68.814c-0.137-9.06,6.157-14.382,14.525-14.317c22.274,0.174,44.551,0.059,66.827,0.059
		c22.445,0,44.89-0.005,67.334,0.002c6.706,0.001,11.602,3.317,13.254,9.199c0.465,1.667,0.418,3.508,0.421,5.27
		c0.024,17.956-0.014,35.913,0.017,53.868c0.014,7.398,0.216,14.797,0.233,22.195c0.048,20.437,0.041,40.871,0.058,61.311
		c0.003,4.453,0.038,8.91-0.003,13.365c-0.096,10.917-0.271,21.833-0.329,32.748c-0.034,7.189,0.021,14.379,0.171,21.567
		c0.041,1.961-0.453,2.656-2.521,2.568 M186.313,145.714c0,0.029,0,0.057,0,0.084c5.927,0,11.851,0.008,17.778,0
		c15.067-0.025,30.131-0.034,45.198-0.109c3.524-0.018,6.026-2.304,6.208-5.739c0.175-3.207,0.168-6.438-0.011-9.645
		c-0.167-3.073-2.458-5.298-5.533-5.711c-0.833-0.113-1.686-0.081-2.533-0.082c-36.991-0.037-73.984-0.073-110.975-0.099
		c-3.893-0.001-7.787,0.015-11.677,0.116c-4.286,0.11-6.69,2.608-6.757,6.909c-0.042,2.622-0.018,5.245-0.069,7.867
		c-0.063,3.26,2.236,6.53,6.411,6.493C145.006,145.614,165.66,145.714,186.313,145.714z M186.784,192.909
		c-14.99,0-29.982,0-44.972,0c-5.675,0-11.35-0.055-17.024,0.025c-4.31,0.058-6.697,2.537-6.774,6.855
		c-0.038,2.116-0.007,4.234-0.005,6.353c0.009,5.897,2.202,8.07,8.162,8.073c30.913,0.003,61.826,0.004,92.739,0.006
		c9.993,0.002,19.986,0.072,29.977-0.026c4.594-0.044,6.562-2.191,6.668-6.796c0.05-2.116,0.013-4.234,0.013-6.351
		c0-5.983-2.132-8.139-8.06-8.139C227.265,192.909,207.024,192.909,186.784,192.909z M187.044,158.746c-7.789,0-15.578,0-23.367,0
		c-12.87,0.003-25.739-0.013-38.607,0.016c-4.65,0.01-7.022,2.415-7.067,7.047c-0.025,2.541-0.051,5.083,0.013,7.621
		c0.099,3.994,2.53,6.415,6.543,6.58c1.099,0.046,2.201,0.021,3.301,0.021c36.065,0.002,72.131,0.002,108.196,0
		c4.316,0,8.636,0.061,12.952-0.034c4.018-0.087,6.438-2.566,6.551-6.562c0.058-2.201,0.014-4.404,0.014-6.605
		c-0.008-6.016-2.061-8.078-8.081-8.081C227.344,158.745,207.194,158.746,187.044,158.746z M186.81,77.514
		c18.627,0,37.255,0.001,55.884-0.001c2.201,0,4.409,0.081,6.603-0.042c3.737-0.211,6.133-2.643,6.257-6.357
		c0.093-2.876,0.041-5.758,0.006-8.636c-0.027-2.173-0.823-4.177-2.76-5.107c-1.601-0.768-3.541-1.117-5.334-1.133
		c-10.833-0.097-21.67-0.047-32.503-0.041c-30.057,0.021-60.113,0.033-90.169,0.079c-4.382,0.006-6.715,2.384-6.793,6.754
		c-0.037,2.116-0.007,4.233-0.005,6.35c0.005,5.957,2.158,8.124,8.104,8.125C146.336,77.512,166.573,77.509,186.81,77.514z
		 M186.805,22.022c0-0.004,0-0.01,0-0.014c-1.863,0-3.727,0-5.59,0c-18.717,0.005-37.434,0-56.15,0.023
		c-4.639,0.007-7.013,2.407-7.068,7.045c-0.025,2.117-0.01,4.234-0.005,6.352c0.015,5.658,2.212,7.863,7.819,7.864
		c32.946,0.008,65.89,0.019,98.835,0.026c7.949,0.003,15.899,0.028,23.845-0.026c4.659-0.032,7.028-2.448,7.086-7.065
		c0.027-2.117,0.003-4.235,0-6.352c-0.003-5.679-2.139-7.847-7.796-7.85C227.457,22.017,207.131,22.022,186.805,22.022z
		 M186.746,90.401c-20.312,0-40.625-0.005-60.937,0.003c-5.394,0.002-7.69,2.314-7.727,7.731c-0.013,1.863-0.014,3.725,0.002,5.586
		c0.051,5.644,2.266,7.879,7.832,7.883c13.608,0.009,27.216,0.01,40.825,0.009c27-0.001,53.997-0.001,80.995-0.009
		c5.4-0.002,7.703-2.307,7.741-7.707c0.013-2.031,0.038-4.062,0.01-6.093c-0.068-5.038-2.461-7.398-7.552-7.4
		C227.541,90.395,207.143,90.401,186.746,90.401z"/>
	<path opacity="0.8" fill-rule="evenodd" clip-rule="evenodd" fill="#455B65" d="M355.769,131.815c0,22.784,0,45.57-0.004,68.353
		c0,2.961-0.004,2.97-2.846,2.97c-25.324-0.003-50.652-0.034-75.977,0.033c-2.119,0.004-2.788-0.605-2.67-2.701
		c0.168-3.039,0.168-6.1,0.021-9.143c-0.096-1.968,0.641-2.373,2.481-2.37c19.482,0.049,38.962,0.008,58.445-0.01
		c5.739-0.005,7.833-2.129,7.838-7.95c0-2.117,0.044-4.235-0.011-6.353c-0.1-4.038-2.705-6.568-6.739-6.572
		c-19.737-0.005-39.47,0-59.207-0.004c-3.044,0-2.935,0-2.815-3.077c0.096-2.524-0.027-5.068-0.206-7.595
		c-0.137-1.985,0.556-2.585,2.593-2.578c19.65,0.075,39.298,0.046,58.948,0.044c5.043,0,7.446-2.369,7.432-7.398
		c-0.006-2.537,0.131-5.104-0.219-7.601c-0.631-4.502-2.393-5.912-6.941-5.936c-9.994-0.054-19.987-0.079-29.98-0.071
		c-9.737,0.008-19.473,0.02-29.209,0.155c-2.012,0.029-2.722-0.547-2.606-2.571c0.151-2.703,0.165-5.425,0.021-8.128
		c-0.109-2.025,0.604-2.55,2.596-2.543c19.482,0.073,38.961-0.069,58.444,0.118c5.253,0.051,8.355-3.274,7.933-8.107
		c-0.168-1.934-0.021-3.895-0.027-5.842c-0.017-4.912-2.539-7.428-7.531-7.437c-11.772-0.021-23.549-0.014-35.322-0.02
		c-8.118-0.003-16.235-0.021-24.354-0.001c-0.984,0.003-1.672-0.171-1.672-1.325c0-2.93-0.059-5.86,0.014-8.787
		c0.068-2.701,0.257-2.76,2.931-2.753c19.596,0.052,39.191,0.095,58.785,0.096c4.611,0,7.127-2.646,7.15-7.303
		c0.01-2.457,0.038-4.914-0.011-7.369c-0.078-4.03-2.693-6.604-6.739-6.623c-5.396-0.026-10.795-0.006-16.191-0.006
		c-14.437,0-28.873-0.032-43.306,0.038c-1.806,0.009-2.551-0.313-2.455-2.323c0.176-3.635,0.155-7.287,0.007-10.922
		c-0.079-1.904,0.494-2.446,2.406-2.437c13.892,0.063,27.783,0.012,41.67-0.003c7.711-0.008,15.417-0.026,23.124-0.026
		c8.834,0.001,14.107,5.218,14.113,13.978c0.008,22.7,0.004,45.399,0.004,68.099C355.713,131.815,355.737,131.815,355.769,131.815z"
		/>
	<path fill-rule="evenodd" clip-rule="evenodd" fill="#455B65" d="M17.901,131.478c0-22.693-0.005-45.388,0.002-68.081
		c0.002-8.174,5.306-13.64,13.403-13.646c21.851-0.017,43.703,0.063,65.554,0.014c2.009-0.005,2.403,0.688,2.339,2.491
		c-0.124,3.553-0.153,7.12,0.013,10.669c0.094,1.995-0.474,2.546-2.499,2.535c-15.583-0.087-31.169-0.047-46.753-0.047
		c-4.235,0-8.471-0.023-12.705,0.006c-4.046,0.027-6.663,2.604-6.736,6.63c-0.043,2.371-0.015,4.743-0.008,7.115
		c0.013,5.067,2.521,7.556,7.666,7.56c15.754,0.017,31.507,0.026,47.261,0.019c3.721-0.001,7.45,0.061,11.158-0.17
		c2.186-0.137,2.832,0.747,2.806,2.698c-0.037,2.71-0.048,5.422,0.033,8.13c0.05,1.638-0.525,2.139-2.221,2.127
		c-11.854-0.078-23.711-0.038-35.567-0.035c-7.792,0.002-15.585-0.001-23.377,0.009c-5.299,0.008-7.75,2.456-7.76,7.719
		c-0.003,2.032-0.005,4.065,0.002,6.098c0.018,5.001,2.478,7.494,7.42,7.495c19.564,0.003,39.13,0,58.696,0.003
		c2.77,0,2.776,0.008,2.791,2.771c0.014,2.541-0.086,5.087,0.047,7.621c0.112,2.118-0.734,2.826-2.806,2.798
		c-8.38-0.113-16.761-0.14-25.144-0.147c-11.095-0.011-22.19,0.016-33.286,0.046c-5.563,0.016-7.712,2.227-7.713,7.863
		c-0.001,2.117,0.059,4.238-0.018,6.353c-0.144,3.939,3.416,6.86,6.841,6.83c18.887-0.177,37.775-0.086,56.663-0.086
		c0.678,0,1.357-0.038,2.032,0.012c3.091,0.225,3.11,0.36,3.05,3.404c-0.042,2.184,0.145,4.379,0.348,6.56
		c0.269,2.921,0.051,3.229-2.825,3.229c-19.651,0.004-39.302,0.112-58.951-0.087c-4.188-0.04-7.425,3.279-7.169,7.292
		c0.15,2.364,0.052,4.743,0.025,7.114c-0.039,3.509,2.769,6.658,6.691,6.632c19.734-0.136,39.47-0.041,59.205-0.028
		c2.812,0,2.818-0.005,2.83,2.708c0.012,2.964-0.088,5.935,0.057,8.89c0.095,1.94-0.424,2.592-2.508,2.58
		c-15.331-0.092-30.661-0.04-45.993-0.037c-10.163,0.003-20.329-0.055-30.491,0.053c-2.077,0.022-2.546-0.649-2.536-2.61
		c0.099-19.817,0.109-39.634,0.143-59.455c0.006-3.214,0.001-6.43,0.001-9.646C17.908,131.478,17.904,131.478,17.901,131.478z"/>
	<path fill-rule="evenodd" clip-rule="evenodd" fill="#455B65" d="M186.862,264.154c-27.951,0-55.902-0.13-83.851,0.101
		c-6.293,0.049-10.546-4.419-10.049-10.183c0.327-3.785,0.038-7.618,0.067-11.429c0.038-4.635,3.878-8.485,8.523-8.487
		c39.383-0.012,78.766-0.004,118.147-0.004c17.22,0,34.44,0.126,51.657-0.083c4.95-0.058,9.595,4.463,9.246,9.188
		c-0.269,3.537-0.336,7.138,0.01,10.662c0.548,5.578-3.445,10.416-10.408,10.349C242.427,263.994,214.644,264.154,186.862,264.154z"
		/>
	<path opacity="0.6" fill-rule="evenodd" clip-rule="evenodd" fill="#546E7A" d="M318.16,209.105
		c12.866,0,25.735-0.025,38.602,0.025c1.914,0.009,3.915,0.092,5.716,0.652c3.472,1.081,5.45,3.99,5.495,7.627
		c0.058,4.57,0.096,9.144-0.01,13.712c-0.104,4.523-3.799,8.088-8.308,8.091c-23.789,0.02-47.577-0.006-71.366,0.049
		c-1.509,0.003-2.156-0.491-2.702-1.852c-1.759-4.399-4.991-7.406-9.513-8.741c-1.529-0.45-1.828-1.114-1.817-2.444
		c0.041-4.826,0.11-9.652-0.003-14.476c-0.045-1.93,0.438-2.589,2.505-2.571c13.802,0.096,27.601,0.047,41.4,0.047
		C318.16,209.188,318.16,209.147,318.16,209.105z"/>
	<path opacity="0.7" fill-rule="evenodd" clip-rule="evenodd" fill="#546E7A" d="M55.447,209.226
		c13.716,0,27.431,0.043,41.146-0.046c2.04-0.014,2.809,0.428,2.742,2.601c-0.148,4.823-0.06,9.651-0.018,14.478
		c0.011,1.36-0.358,1.975-1.854,2.42c-4.517,1.349-7.75,4.354-9.484,8.763c-0.55,1.399-1.253,1.817-2.727,1.815
		c-23.706-0.048-47.41-0.027-71.117-0.039c-4.787-0.002-8.468-3.595-8.549-8.379c-0.066-3.977,0.206-7.974-0.079-11.934
		c-0.403-5.604,3.674-9.966,9.814-9.867c13.372,0.213,26.75,0.065,40.125,0.065C55.447,209.145,55.447,209.186,55.447,209.226z"/>
	<path fill-rule="evenodd" clip-rule="evenodd" fill="none" stroke="#8CC640" stroke-miterlimit="10" d="M326.854,80.851
		c-2.672,0.039-4.944-2.065-5.04-4.668c-0.096-2.525,2.469-5.136,5.009-5.106c2.537,0.03,4.8,2.359,4.82,4.958
		C331.667,78.755,329.624,80.81,326.854,80.851z"/>
	<path fill-rule="evenodd" clip-rule="evenodd" fill="#8DC63F" stroke="#8CC640" stroke-miterlimit="10" d="M326.854,115.723
		c-2.672,0.039-4.944-2.064-5.04-4.667c-0.096-2.526,2.469-5.137,5.009-5.106c2.537,0.03,4.8,2.358,4.82,4.957
		C331.667,113.627,329.624,115.683,326.854,115.723z"/>
	<path fill-rule="evenodd" clip-rule="evenodd" fill="#2BB673" stroke="#2BB673" stroke-miterlimit="10" d="M326.854,149.377
		c-2.672,0.038-4.944-2.065-5.04-4.669c-0.096-2.525,2.469-5.135,5.009-5.104c2.537,0.029,4.8,2.359,4.82,4.958
		C331.667,147.28,329.624,149.336,326.854,149.377z"/>
	<path fill-rule="evenodd" clip-rule="evenodd" fill="#F15A29" stroke="#F15A29" stroke-miterlimit="10" d="M326.854,183.409
		c-2.672,0.038-4.944-2.065-5.04-4.669c-0.096-2.525,2.469-5.136,5.009-5.105c2.537,0.029,4.8,2.358,4.82,4.957
		C331.667,181.313,329.624,183.368,326.854,183.409z"/>
	<path fill-rule="evenodd" clip-rule="evenodd" d="M46.758,149.267"/>
	<path fill-rule="evenodd" clip-rule="evenodd" d="M331.664,178.522"/>
	<path fill-rule="evenodd" clip-rule="evenodd" fill="#FFFFFF" stroke="#8CC640" stroke-miterlimit="10" d="M244.052,135.292
		c-0.031,2.69-2.232,4.85-4.872,4.781c-2.605-0.068-4.813-2.398-4.721-4.984c0.089-2.399,2.39-4.623,4.817-4.653
		C241.909,130.402,244.083,132.613,244.052,135.292z"/>
	<path fill-rule="evenodd" clip-rule="evenodd" fill="#8DC63F" stroke="#8CC640" stroke-miterlimit="10" d="M139.119,135.216
		c0.015,2.59-2.236,4.856-4.829,4.856c-2.4,0-4.714-2.29-4.708-4.66c0.008-2.65,2.227-4.898,4.914-4.975
		C136.834,130.37,139.103,132.716,139.119,135.216z"/>
	<path fill-rule="evenodd" clip-rule="evenodd" fill="none" stroke="#8CC640" stroke-miterlimit="10" d="M139.085,203.687
		c-0.042,2.664-2.275,4.728-5.006,4.63c-2.629-0.095-4.594-2.167-4.545-4.796c0.048-2.603,2.129-4.675,4.709-4.692
		C136.892,198.816,139.128,201.057,139.085,203.687z"/>
	<path fill-rule="evenodd" clip-rule="evenodd" fill="#8DC63F" stroke="#8CC640" stroke-miterlimit="10" d="M239.166,208.318
		c-2.605-0.053-4.679-2.142-4.679-4.707c0.007-2.641,2.269-4.84,4.919-4.778c2.674,0.058,4.755,2.313,4.632,5.015
		C243.921,206.451,241.823,208.374,239.166,208.318z"/>
	<path opacity="0.9" fill-rule="evenodd" clip-rule="evenodd" fill="#F15A29" stroke="#F15A29" stroke-miterlimit="10" d="
		M225.563,198.829c2.562,0,4.676,2.085,4.734,4.668c0.058,2.72-2.04,4.832-4.786,4.82c-2.616-0.014-4.725-2.045-4.783-4.61
		C220.671,201.103,222.92,198.829,225.563,198.829z"/>
	<path fill-rule="evenodd" clip-rule="evenodd" fill="#F15A29" stroke="#F15B26" stroke-miterlimit="10" d="M134.328,164.65
		c2.523,0.01,4.694,2.149,4.752,4.686c0.059,2.623-2.171,4.863-4.831,4.851c-2.57-0.012-4.686-2.11-4.714-4.674
		C129.507,166.808,131.644,164.639,134.328,164.65z"/>
	<path fill-rule="evenodd" clip-rule="evenodd" fill="#FFFFFF" stroke="#8CC640" stroke-miterlimit="10" d="M230.297,169.364
		c0.031,2.577-2.009,4.724-4.577,4.82c-2.646,0.096-4.937-2.063-4.987-4.702c-0.048-2.594,2.244-4.866,4.867-4.829
		C228.175,164.691,230.27,166.791,230.297,169.364z"/>
	<path opacity="0.9" fill-rule="evenodd" clip-rule="evenodd" fill="#2BB673" stroke="#00A99D" stroke-miterlimit="10" d="
		M244.038,169.569c-0.058,2.561-2.201,4.639-4.769,4.618c-2.661-0.021-4.854-2.276-4.772-4.909c0.079-2.521,2.283-4.64,4.807-4.625
		C241.984,164.67,244.096,166.865,244.038,169.569z"/>
	<path fill-rule="evenodd" clip-rule="evenodd" fill="#FFFFFF" stroke="#8CC640" stroke-miterlimit="10" d="M230.304,66.769
		c0.048,2.75-1.995,4.85-4.734,4.861c-2.703,0.012-4.899-2.14-4.882-4.781c0.016-2.522,2.123-4.673,4.676-4.774
		C228.045,61.97,230.252,64.068,230.304,66.769z"/>
	<path fill-rule="evenodd" clip-rule="evenodd" fill="none" stroke="#FBB03B" stroke-miterlimit="10" d="M139.129,66.855
		c0.014,2.656-2.171,4.792-4.882,4.773c-2.655-0.02-4.662-1.977-4.726-4.614c-0.067-2.729,2-4.908,4.689-4.943
		C136.861,62.037,139.116,64.229,139.129,66.855z"/>
	<path fill-rule="evenodd" clip-rule="evenodd" fill="#FBB040" stroke="#FBB03B" stroke-miterlimit="10" d="M48.583,76.415
		c0.014,2.656-2.171,4.792-4.883,4.772c-2.655-0.019-4.662-1.977-4.726-4.613c-0.067-2.729,2-4.909,4.69-4.943
		C46.315,71.596,48.57,73.788,48.583,76.415z"/>
	<path fill-rule="evenodd" clip-rule="evenodd" fill="none" stroke="#8CC640" stroke-miterlimit="10" d="M48.583,110.842
		c0.014,2.656-2.171,4.792-4.883,4.772c-2.655-0.019-4.662-1.977-4.726-4.613c-0.067-2.729,2-4.908,4.69-4.943
		C46.315,106.023,48.57,108.215,48.583,110.842z"/>
	<path fill-rule="evenodd" clip-rule="evenodd" fill="#FBB040" stroke="#FBB03B" stroke-miterlimit="10" d="M48.583,144.495
		c0.014,2.657-2.171,4.793-4.883,4.772c-2.655-0.019-4.662-1.977-4.726-4.613c-0.067-2.729,2-4.908,4.69-4.943
		C46.315,139.677,48.57,141.869,48.583,144.495z"/>
	<path fill-rule="evenodd" clip-rule="evenodd" fill="#8DC63F" stroke="#8CC640" stroke-miterlimit="10" d="M48.583,178.527
		c0.014,2.657-2.171,4.792-4.883,4.772c-2.655-0.019-4.662-1.976-4.726-4.613c-0.067-2.729,2-4.907,4.69-4.943
		C46.315,173.709,48.57,175.901,48.583,178.527z"/>
	<path opacity="0.9" fill-rule="evenodd" clip-rule="evenodd" fill="none" d="M216.571,66.973c-0.045,2.702-2.21,4.738-4.951,4.655
		c-2.612-0.08-4.642-2.14-4.652-4.727c-0.013-2.66,2.182-4.844,4.851-4.829C214.503,62.087,216.615,64.265,216.571,66.973z
		 M208.761,66.845c0.026,1.648,1.457,3.053,3.079,3.022c1.608-0.029,3.037-1.509,3.015-3.12c-0.022-1.641-1.441-3.01-3.111-2.999
		C210.076,63.759,208.737,65.15,208.761,66.845z"/>
	<path fill-rule="evenodd" clip-rule="evenodd" fill="#FBB040" stroke="#FBB03B" stroke-miterlimit="10" d="M139.138,32.758
		c-0.043,2.613-2.256,4.743-4.914,4.729c-2.658-0.014-4.721-2.15-4.708-4.875c0.012-2.641,2.217-4.813,4.855-4.783
		C136.929,27.857,139.18,30.185,139.138,32.758z"/>
	<path fill-rule="evenodd" clip-rule="evenodd" fill="#8DC63F" stroke="#8CC640" stroke-miterlimit="10" d="M230.612,32.605
		c0.043,2.696-2.016,4.832-4.697,4.876c-2.65,0.044-4.867-2.082-4.912-4.708c-0.046-2.583,2.177-4.904,4.739-4.948
		C228.343,27.782,230.572,29.967,230.612,32.605z"/>
	<path opacity="0.9" fill-rule="evenodd" clip-rule="evenodd" fill="none" stroke="#00A99D" stroke-miterlimit="10" d="
		M234.658,32.906c-0.034-2.918,1.838-5.027,4.512-5.081c2.657-0.053,4.878,2.131,4.889,4.808c0.011,2.49-2.132,4.593-4.731,4.645
		C236.766,37.329,234.688,35.384,234.658,32.906z"/>
	<path opacity="0.9" fill-rule="evenodd" clip-rule="evenodd" fill="none" stroke="#00A99D" stroke-miterlimit="10" d="
		M230.674,101.014c0.012,2.8-2.263,5.126-4.937,5.046c-2.537-0.075-4.801-2.402-4.827-4.96c-0.027-2.732,2.268-5.018,4.995-4.976
		C228.636,96.167,230.661,98.246,230.674,101.014z"/>
	<path fill-rule="evenodd" clip-rule="evenodd" fill="none" stroke="#8CC640" stroke-miterlimit="10" d="M139.26,101.013
		c0.017,2.582-2.417,5.05-4.975,5.045c-2.645-0.004-4.903-2.362-4.874-5.088c0.029-2.702,2.083-4.785,4.777-4.845
		C136.869,96.064,139.242,98.353,139.26,101.013z"/>
	<path fill-rule="evenodd" clip-rule="evenodd" fill="#8DC63F" stroke="#8CC640" stroke-miterlimit="10" d="M244.141,101.35
		c-0.147,2.611-2.468,4.807-4.978,4.709c-2.582-0.1-4.947-2.626-4.848-5.175c0.103-2.667,2.533-4.891,5.2-4.759
		C242.303,96.266,244.302,98.524,244.141,101.35z"/>
</g>
<g>
</g>
<g>
</g>
<g>
</g>
<g>
</g>
<g>
</g>
<g>
</g>
</svg>
